<svg width="1228" height="1678" viewBox="0 0 1228 1678" fill="none" xmlns="http://www.w3.org/2000/svg">
<path d="M743.55 971.754C732.602 1036.07 659.805 1043.28 621.059 1038.6C618.905 1038.34 616.984 1040 616.984 1042.17V1173.41C616.984 1175.4 618.696 1176.99 620.678 1176.94C931.05 1168.96 969.86 867.076 732.205 753.721C541.329 662.679 633.765 563.341 703.843 525.053C843.126 426.693 982.888 518.573 1006.76 584.41C1006.9 584.788 1006.96 585.173 1006.96 585.576V1166.39C1006.96 1168.35 1008.55 1169.93 1010.51 1169.93H1140.66C1142.6 1169.93 1144.18 1168.46 1144.2 1166.52C1146.03 997.514 1144.16 650.198 1144.16 584.968C1144.16 501.287 1070.88 383.923 959.455 359.844C862.669 338.928 628.329 314.11 525.163 525.053C421.996 735.995 573.378 809.381 597.84 827.817C622.302 846.252 757.731 888.44 743.55 971.754Z" fill="#DDA23E" stroke="#DDA23E" stroke-width="6.38144" stroke-linecap="round"/>
<path d="M476.581 877.804C477.413 996.159 566.349 1034.76 613.738 1039.87C615.577 1040.07 616.973 1041.6 616.973 1043.45V1170.32C616.973 1172.4 615.086 1174.02 613.015 1173.83C306.912 1144.77 324.154 898.464 328.39 838.452C332.644 778.183 475.517 726.422 476.581 877.804Z" fill="#0B4DA6" stroke="#0B4DA6" stroke-width="6.38144" stroke-linecap="round"/>
<path d="M82 572.912V1165.68C82 1167.64 83.5872 1169.22 85.5452 1169.22H220.619C222.577 1169.22 224.164 1167.64 224.164 1165.68V584.966C225.228 559.795 274.507 472.936 406.036 478.609C537.564 484.281 603.86 608.01 622.65 657.289C636.97 694.845 697.04 731.521 729.364 747.274C731.592 748.36 734.17 746.724 734.33 744.251C753.925 441.237 539.652 347.976 429.434 339.28C169.922 331.339 89.6814 491.726 82 572.912Z" fill="#0B4DA6" stroke="#0B4DA6" stroke-width="6.38144" stroke-linecap="round"/>
<circle cx="385.469" cy="149.609" r="149.609" fill="#0B4DA6"/>
<circle cx="842.102" cy="149.609" r="149.609" fill="#DDA23E"/>
<path d="M87.9886 1589.01C71.1325 1589.01 56.4116 1585.53 43.8257 1578.56C31.2399 1571.37 20.7891 1561.48 12.4735 1548.9L32.0265 1532.72C39.2184 1543.28 47.3093 1551.48 56.2992 1557.32C65.2891 1562.94 75.8522 1565.75 87.9886 1565.75C119.903 1565.75 135.86 1550.81 135.86 1520.92C135.86 1508.78 132.938 1499.56 127.095 1493.27C121.251 1486.98 111.138 1482.03 96.7537 1478.44L79.2234 1474.06C58.5467 1468.89 43.2639 1461.36 33.375 1451.47C23.7108 1441.36 18.8788 1427.2 18.8788 1408.99C18.8788 1388.09 25.3964 1372.36 38.4318 1361.79C51.4671 1351.01 68.7727 1345.61 90.3484 1345.61C106.755 1345.61 120.465 1348.65 131.477 1354.72C142.715 1360.78 152.491 1370.34 160.807 1383.37L140.917 1397.53C134.848 1388.09 127.881 1381.01 120.015 1376.29C112.374 1371.35 102.148 1368.87 89.337 1368.87C74.9532 1368.87 63.9406 1372.02 56.2992 1378.31C48.8825 1384.61 45.1742 1394.83 45.1742 1408.99C45.1742 1420.45 48.2083 1429.11 54.2765 1434.95C60.5694 1440.79 70.5706 1445.4 84.2802 1448.77L101.811 1453.15C112.823 1455.85 122.15 1459.11 129.792 1462.93C137.433 1466.53 143.614 1471.02 148.333 1476.42C153.278 1481.81 156.761 1488.22 158.784 1495.63C161.031 1502.82 162.155 1511.25 162.155 1520.92C162.155 1543.17 155.525 1560.13 142.265 1571.82C129.23 1583.28 111.138 1589.01 87.9886 1589.01ZM215.552 1368.87C204.989 1368.87 199.707 1364.27 199.707 1355.05V1349.66C199.707 1340.44 204.989 1335.84 215.552 1335.84C226.115 1335.84 231.397 1340.44 231.397 1349.66V1355.05C231.397 1364.27 226.115 1368.87 215.552 1368.87ZM202.741 1411.01H228.363V1584.97H202.741V1411.01ZM314.51 1584.97C305.295 1584.97 298.553 1582.95 294.283 1578.9C290.237 1574.63 288.215 1567.89 288.215 1558.67V1433.6H262.593V1411.01H277.764C282.933 1411.01 286.304 1409.78 287.878 1407.31C289.676 1404.61 290.575 1400.68 290.575 1395.51V1363.14H313.836V1411.01H347.548V1433.6H313.836V1562.38H345.862V1584.97H314.51ZM444.792 1589.01C434.678 1589.01 425.239 1587.33 416.473 1583.96C407.708 1580.59 400.179 1575.19 393.886 1567.78C387.593 1560.36 382.649 1550.92 379.053 1539.46C375.457 1528 373.659 1514.17 373.659 1497.99C373.659 1481.81 375.457 1467.99 379.053 1456.53C382.649 1445.06 387.593 1435.62 393.886 1428.21C400.179 1420.79 407.708 1415.4 416.473 1412.03C425.239 1408.65 434.678 1406.97 444.792 1406.97C454.905 1406.97 464.12 1408.65 472.435 1412.03C480.976 1415.4 488.168 1420.79 494.011 1428.21C499.855 1435.62 504.35 1445.06 507.496 1456.53C510.867 1467.99 512.553 1481.81 512.553 1497.99V1504.4H400.966V1515.52C400.966 1532.6 404.787 1545.41 412.428 1553.95C420.294 1562.27 431.082 1566.43 444.792 1566.43C456.478 1566.43 466.03 1563.95 473.447 1559.01C480.863 1553.84 486.707 1546.2 490.977 1536.09L508.507 1548.9C503.113 1560.81 495.135 1570.47 484.572 1577.89C474.233 1585.31 460.973 1589.01 444.792 1589.01ZM444.792 1428.54C430.857 1428.54 420.069 1432.93 412.428 1441.69C404.787 1450.46 400.966 1463.38 400.966 1480.46V1484.84H485.246V1480.46C485.246 1445.85 471.761 1428.54 444.792 1428.54ZM552.373 1584.97V1411.01H577.994V1439.33H581.365C584.736 1428.54 589.681 1420.45 596.198 1415.06C602.716 1409.67 611.931 1406.97 623.842 1406.97C634.63 1406.97 643.732 1409.67 651.149 1415.06C658.79 1420.23 664.521 1428.32 668.342 1439.33H671.713C675.309 1428.54 680.928 1420.45 688.569 1415.06C696.211 1409.67 706.324 1406.97 718.91 1406.97C733.744 1406.97 745.655 1412.25 754.645 1422.81C763.635 1433.38 768.13 1449.67 768.13 1471.7V1584.97H742.509V1473.38C742.509 1459.45 739.699 1448.77 734.081 1441.36C728.687 1433.94 720.259 1430.23 708.797 1430.23C698.683 1430.23 690.143 1433.38 683.176 1439.67C676.433 1445.96 673.062 1454.84 673.062 1466.3V1584.97H647.441V1473.38C647.441 1459.45 644.631 1448.77 639.013 1441.36C633.619 1433.94 625.191 1430.23 613.729 1430.23C603.615 1430.23 595.075 1433.38 588.107 1439.67C581.365 1445.96 577.994 1454.84 577.994 1466.3V1584.97H552.373ZM927.625 1584.97C910.994 1584.97 902.678 1576.65 902.678 1560.02V1556.65H899.307C896.385 1567.21 890.991 1575.3 883.125 1580.92C875.484 1586.32 866.269 1589.01 855.481 1589.01C838.625 1589.01 826.039 1584.74 817.724 1576.2C809.408 1567.66 805.25 1555.08 805.25 1538.45C805.25 1522.26 810.532 1509.45 821.095 1500.01C831.883 1490.57 848.626 1485.86 871.326 1485.86H902.678V1466.64C902.678 1453.83 899.756 1444.39 893.913 1438.32C888.294 1432.25 879.304 1429.22 866.943 1429.22C856.83 1429.22 848.626 1431.47 842.333 1435.96C836.265 1440.23 830.984 1446.52 826.489 1454.84L811.318 1440.68C815.813 1431.24 823.005 1423.38 832.894 1417.08C842.783 1410.56 854.47 1407.31 867.955 1407.31C887.732 1407.31 902.678 1412.14 912.792 1421.8C923.13 1431.24 928.299 1445.29 928.299 1463.94V1562.38H945.83V1584.97H927.625ZM861.887 1566.76C867.73 1566.76 873.124 1565.75 878.068 1563.73C883.238 1561.71 887.62 1559.12 891.216 1555.98C894.812 1552.61 897.621 1548.9 899.644 1544.85C901.667 1540.58 902.678 1536.2 902.678 1531.7V1505.41H870.652C857.167 1505.41 847.278 1507.66 840.985 1512.15C834.917 1516.65 831.883 1523.16 831.883 1531.7V1541.14C831.883 1549.91 834.58 1556.43 839.974 1560.7C845.368 1564.74 852.672 1566.76 861.887 1566.76ZM1015.42 1584.97C1006.2 1584.97 999.462 1582.95 995.191 1578.9C991.146 1574.63 989.123 1567.89 989.123 1558.67V1433.6H963.502V1411.01H978.673C983.842 1411.01 987.213 1409.78 988.786 1407.31C990.584 1404.61 991.483 1400.68 991.483 1395.51V1363.14H1014.74V1411.01H1048.46V1433.6H1014.74V1562.38H1046.77V1584.97H1015.42ZM1145.7 1589.01C1135.59 1589.01 1126.15 1587.33 1117.38 1583.96C1108.62 1580.59 1101.09 1575.19 1094.79 1567.78C1088.5 1560.36 1083.56 1550.92 1079.96 1539.46C1076.37 1528 1074.57 1514.17 1074.57 1497.99C1074.57 1481.81 1076.37 1467.99 1079.96 1456.53C1083.56 1445.06 1088.5 1435.62 1094.79 1428.21C1101.09 1420.79 1108.62 1415.4 1117.38 1412.03C1126.15 1408.65 1135.59 1406.97 1145.7 1406.97C1155.81 1406.97 1165.03 1408.65 1173.34 1412.03C1181.88 1415.4 1189.08 1420.79 1194.92 1428.21C1200.76 1435.62 1205.26 1445.06 1208.4 1456.53C1211.78 1467.99 1213.46 1481.81 1213.46 1497.99V1504.4H1101.87V1515.52C1101.87 1532.6 1105.7 1545.41 1113.34 1553.95C1121.2 1562.27 1131.99 1566.43 1145.7 1566.43C1157.39 1566.43 1166.94 1563.95 1174.36 1559.01C1181.77 1553.84 1187.62 1546.2 1191.89 1536.09L1209.42 1548.9C1204.02 1560.81 1196.04 1570.47 1185.48 1577.89C1175.14 1585.31 1161.88 1589.01 1145.7 1589.01ZM1145.7 1428.54C1131.77 1428.54 1120.98 1432.93 1113.34 1441.69C1105.7 1450.46 1101.87 1463.38 1101.87 1480.46V1484.84H1186.15V1480.46C1186.15 1445.85 1172.67 1428.54 1145.7 1428.54Z" fill="#0B4DA6"/>
</svg>
